# xmcd CD database file
#
# Track frame offsets:
#	150
#	40418
#	66720
#	115235
#	141825
#	174998
#	191580
#	215000
#
# Disc length: 3075 seconds
#
# Revision: 1
# Processed by: cddbd v1.5.1PL2 Copyright (c) Steve Scherf et al.
# Submitted via: CDex 1.70beta2
#
DISCID=7e0c0108
DTITLE=The Heritage Orchestra - The Heritage Orchestra
DYEAR=2006
DGENRE=Jazz
TTITLE0=Mothers and Daughters Now Mothers
TTITLE1=d'Lin
TTITLE2=Sky Breaks
TTITLE3=Ballard for Strings
TTITLE4=Tell Me Stories
TTITLE5=The 1890 Affair: I
TTITLE6=The 1890 Affair: II
TTITLE7=The 1890 Affair: III
EXTD=YEAR: 2006
EXTT0=
EXTT1=
EXTT2=
EXTT3=
EXTT4=
EXTT5=
EXTT6=
EXTT7=
PLAYORDER=
